<mxfile host="app.diagrams.net" agent="Mozilla/5.0 (Macintosh; Intel Mac OS X 10.15; rv:144.0) Gecko/20100101 Firefox/144.0" version="28.2.7">
  <diagram name="第 1 页" id="tDb2E9-BXa_PzI4QxrBg">
    <mxGraphModel dx="1665" dy="768" grid="1" gridSize="10" guides="1" tooltips="1" connect="1" arrows="1" fold="1" page="1" pageScale="1" pageWidth="827" pageHeight="1169" math="0" shadow="0">
      <root>
        <mxCell id="0" />
        <mxCell id="1" parent="0" />
        <mxCell id="qC5WR0LCMUFCH1mOaVle-1" style="edgeStyle=orthogonalEdgeStyle;rounded=0;orthogonalLoop=1;jettySize=auto;html=1;entryX=0.5;entryY=0;entryDx=0;entryDy=0;movable=0;resizable=0;rotatable=0;deletable=0;editable=0;locked=1;connectable=0;" parent="1" source="qC5WR0LCMUFCH1mOaVle-10" target="qC5WR0LCMUFCH1mOaVle-2" edge="1">
          <mxGeometry relative="1" as="geometry">
            <mxPoint x="1189" y="580" as="targetPoint" />
          </mxGeometry>
        </mxCell>
        <mxCell id="qC5WR0LCMUFCH1mOaVle-2" value="" style="fillColor=#ffffff;strokeColor=#dddddd;shadow=1;strokeWidth=1;rounded=1;absoluteArcSize=1;arcSize=2;movable=1;resizable=1;rotatable=1;deletable=1;editable=1;locked=0;connectable=1;" parent="1" vertex="1">
          <mxGeometry x="1630" y="668.75" width="130" height="60" as="geometry" />
        </mxCell>
        <mxCell id="qC5WR0LCMUFCH1mOaVle-3" value="Cloud&#xa;Functions" style="editableCssRules=.*;html=1;fontColor=#999999;shape=image;verticalLabelPosition=middle;verticalAlign=middle;labelPosition=right;align=left;spacingLeft=20;part=1;points=[];imageAspect=0;image=data:image/svg+xml,PHN2ZyB4bWxucz0iaHR0cDovL3d3dy53My5vcmcvMjAwMC9zdmciIHhtbG5zOnY9Imh0dHBzOi8vdmVjdGEuaW8vbmFubyIgd2lkdGg9IjIwIiBoZWlnaHQ9IjE5Ljk4OTk5OTc3MTExODE2NCIgdmlld0JveD0iMCAwIDIwIDE5Ljk4OTk5OTc3MTExODE2NCI+JiN4YTsJPHN0eWxlIHR5cGU9InRleHQvY3NzIj4mI3hhOwkuc3Qwe2ZpbGw6IzQyODVmNDt9JiN4YTsJLnN0MXtmaWxsOiM2NjlkZjY7fSYjeGE7CS5zdDJ7ZmlsbDojYWVjYmZhO30mI3hhOwk8L3N0eWxlPiYjeGE7CTxwYXRoIGNsYXNzPSJzdDEiIGQ9Ik0zIDMuOTlMMCA2LjQydjcuMTNsMyAyLjQ0eiIvPiYjeGE7CTxwYXRoIGNsYXNzPSJzdDAiIGQ9Ik0zIDMuOTlsLTMgNCAzLTJ6bS0zIDhsMyA0di0yeiIvPiYjeGE7CTxwYXRoIGNsYXNzPSJzdDIiIGQ9Ik0wIDE1Ljk5bDQgNCAyLTItNi02em0uMDEtOEw1Ljk5IDJsLTItMkwwIDMuOTl6Ii8+JiN4YTsJPHBhdGggY2xhc3M9InN0MSIgZD0iTTE3IDE2bDMtMi40MlY2LjQ0TDE3IDR6Ii8+JiN4YTsJPHBhdGggY2xhc3M9InN0MCIgZD0iTTE3IDE2bDMtNC0zIDJ6bTMtOGwtMy00djJ6Ii8+JiN4YTsJPGcgY2xhc3M9InN0MiI+JiN4YTsJCTxwYXRoIGQ9Ik0yMCA0bC00LTQtMiAyIDYgNnptLS4wMSA4bC01Ljk4IDUuOTkgMiAyTDIwIDE2eiIvPiYjeGE7CQk8Y2lyY2xlIGN4PSI2IiBjeT0iOS45OSIgcj0iMSIvPiYjeGE7CQk8Y2lyY2xlIGN4PSIxMCIgY3k9IjkuOTkiIHI9IjEiLz4mI3hhOwkJPGNpcmNsZSBjeD0iMTMuOTkiIGN5PSI5Ljk5IiByPSIxIi8+JiN4YTsJPC9nPiYjeGE7PC9zdmc+;" parent="qC5WR0LCMUFCH1mOaVle-2" vertex="1">
          <mxGeometry width="30" height="24" relative="1" as="geometry">
            <mxPoint x="15" y="18" as="offset" />
          </mxGeometry>
        </mxCell>
        <mxCell id="qC5WR0LCMUFCH1mOaVle-4" value="" style="edgeStyle=orthogonalEdgeStyle;rounded=0;orthogonalLoop=1;jettySize=auto;html=1;movable=0;resizable=0;rotatable=0;deletable=0;editable=0;locked=1;connectable=0;" parent="1" source="qC5WR0LCMUFCH1mOaVle-2" target="qC5WR0LCMUFCH1mOaVle-5" edge="1">
          <mxGeometry relative="1" as="geometry" />
        </mxCell>
        <mxCell id="qC5WR0LCMUFCH1mOaVle-5" value="Pub/Sub" style="sketch=0;html=1;verticalAlign=top;labelPosition=center;verticalLabelPosition=bottom;align=center;spacingTop=-6;fontSize=11;fontStyle=1;fontColor=#999999;shape=image;aspect=fixed;imageAspect=0;image=data:image/svg+xml,PHN2ZyB4bWxucz0iaHR0cDovL3d3dy53My5vcmcvMjAwMC9zdmciIHhtbG5zOnY9Imh0dHBzOi8vdmVjdGEuaW8vbmFubyIgd2lkdGg9IjE4LjMxOTk5OTY5NDgyNDIyIiBoZWlnaHQ9IjIwLjAwMDAwMTkwNzM0ODYzMyIgdmlld0JveD0iMCAwIDE4LjMxOTk5OTY5NDgyNDIyIDIwLjAwMDAwMTkwNzM0ODYzMyI+JiN4YTsJPHN0eWxlIHR5cGU9InRleHQvY3NzIj4mI3hhOwkuc3Qwe2ZpbGw6IzY2OWRmNjt9JiN4YTsJLnN0MXtmaWxsOiM0Mjg1ZjQ7fSYjeGE7CS5zdDJ7ZmlsbDojYWVjYmZhO30mI3hhOwk8L3N0eWxlPiYjeGE7CTxkZWZzPiYjeGE7CQk8ZmlsdGVyIGlkPSJBIiB4PSI0LjY0IiB5PSI0LjE5IiB3aWR0aD0iMTQuNzMiIGhlaWdodD0iMTIuNzYiIGZpbHRlclVuaXRzPSJ1c2VyU3BhY2VPblVzZSIgY29sb3ItaW50ZXJwb2xhdGlvbi1maWx0ZXJzPSJzUkdCIj4mI3hhOwkJCTxmZUZsb29kIGZsb29kLWNvbG9yPSIjZmZmIi8+JiN4YTsJCQk8ZmVCbGVuZCBpbj0iU291cmNlR3JhcGhpYyIvPiYjeGE7CQk8L2ZpbHRlcj4mI3hhOwkJPG1hc2sgaWQ9IkIiIHg9IjQuNjQiIHk9IjQuMTkiIHdpZHRoPSIxNC43MyIgaGVpZ2h0PSIxMi43NiIgbWFza1VuaXRzPSJ1c2VyU3BhY2VPblVzZSI+JiN4YTsJCQk8Y2lyY2xlIGN4PSIxMiIgY3k9IjEyLjIzIiByPSIzLjU4IiBmaWx0ZXI9InVybCgjQSkiLz4mI3hhOwkJPC9tYXNrPiYjeGE7CTwvZGVmcz4mI3hhOwk8ZyBjbGFzcz0ic3QwIj4mI3hhOwkJPGNpcmNsZSBjeD0iMTYuMTMiIGN5PSI2LjIxIiByPSIxLjcyIi8+JiN4YTsJCTxjaXJjbGUgY3g9IjIuMTkiIGN5PSI2LjIxIiByPSIxLjcyIi8+JiN4YTsJCTxjaXJjbGUgY3g9IjkuMTYiIGN5PSIxOC4yOCIgcj0iMS43MiIvPiYjeGE7CTwvZz4mI3hhOwk8ZyBtYXNrPSJ1cmwoI0IpIiB0cmFuc2Zvcm09InRyYW5zbGF0ZSgtMi44NCAtMikiPiYjeGE7CQk8cGF0aCB0cmFuc2Zvcm09Im1hdHJpeCguNSAtLjg3IC44NyAuNSAtNC41OSAyMC41MykiIGQ9Ik0xNC42OSAxMC4yMmgxLjU5djguMDRoLTEuNTl6IiBjbGFzcz0ic3QxIi8+JiN4YTsJCTxwYXRoIHRyYW5zZm9ybT0icm90YXRlKDMzMCA4LjUyMyAxNC4yNDQpIiBkPSJNNC40OSAxMy40NWg4LjA0djEuNTlINC40OXoiIGNsYXNzPSJzdDEiLz4mI3hhOwkJPHBhdGggZD0iTTExLjIgNC4xOWgxLjU5djguMDRIMTEuMnoiIGNsYXNzPSJzdDEiLz4mI3hhOwk8L2c+JiN4YTsJPGcgY2xhc3M9InN0MiI+JiN4YTsJCTxjaXJjbGUgY3g9IjkuMTYiIGN5PSIxMC4yMyIgcj0iMi43OCIvPiYjeGE7CQk8Y2lyY2xlIGN4PSIyLjE5IiBjeT0iMTQuMjUiIHI9IjIuMTkiLz4mI3hhOwkJPGNpcmNsZSBjeD0iMTYuMTMiIGN5PSIxNC4yNSIgcj0iMi4xOSIvPiYjeGE7CQk8Y2lyY2xlIGN4PSI5LjE2IiBjeT0iMi4xOSIgcj0iMi4xOSIvPiYjeGE7CTwvZz4mI3hhOzwvc3ZnPg==;movable=1;resizable=1;rotatable=1;deletable=1;editable=1;locked=0;connectable=1;" parent="1" vertex="1">
          <mxGeometry x="1677" y="791.25" width="38" height="42" as="geometry" />
        </mxCell>
        <mxCell id="qC5WR0LCMUFCH1mOaVle-6" value="Real-time Updates" style="swimlane;whiteSpace=wrap;html=1;movable=1;resizable=1;rotatable=1;deletable=1;editable=1;locked=0;connectable=1;" parent="1" vertex="1">
          <mxGeometry x="1620" y="532.75" width="160" height="332" as="geometry" />
        </mxCell>
        <mxCell id="qC5WR0LCMUFCH1mOaVle-7" value="stock-price-updates" style="text;html=1;align=center;verticalAlign=middle;whiteSpace=wrap;rounded=0;" parent="qC5WR0LCMUFCH1mOaVle-6" vertex="1">
          <mxGeometry x="14" y="80" width="120" height="30" as="geometry" />
        </mxCell>
        <mxCell id="qC5WR0LCMUFCH1mOaVle-8" value="websocket&lt;span style=&quot;background-color: transparent; color: light-dark(rgb(0, 0, 0), rgb(255, 255, 255));&quot;&gt;-brodcast&lt;/span&gt;" style="text;html=1;align=center;verticalAlign=middle;whiteSpace=wrap;rounded=0;" parent="qC5WR0LCMUFCH1mOaVle-6" vertex="1">
          <mxGeometry x="30" y="302" width="120" height="30" as="geometry" />
        </mxCell>
        <mxCell id="qC5WR0LCMUFCH1mOaVle-9" value="stock Updated-Processor" style="text;html=1;align=center;verticalAlign=middle;whiteSpace=wrap;rounded=0;" parent="qC5WR0LCMUFCH1mOaVle-6" vertex="1">
          <mxGeometry x="10" y="195.5" width="150" height="30" as="geometry" />
        </mxCell>
        <mxCell id="qC5WR0LCMUFCH1mOaVle-10" value="Pub/Sub" style="sketch=0;html=1;verticalAlign=top;labelPosition=center;verticalLabelPosition=bottom;align=center;spacingTop=-6;fontSize=11;fontStyle=1;fontColor=#999999;shape=image;aspect=fixed;imageAspect=0;image=data:image/svg+xml,PHN2ZyB4bWxucz0iaHR0cDovL3d3dy53My5vcmcvMjAwMC9zdmciIHhtbG5zOnY9Imh0dHBzOi8vdmVjdGEuaW8vbmFubyIgd2lkdGg9IjE4LjMxOTk5OTY5NDgyNDIyIiBoZWlnaHQ9IjIwLjAwMDAwMTkwNzM0ODYzMyIgdmlld0JveD0iMCAwIDE4LjMxOTk5OTY5NDgyNDIyIDIwLjAwMDAwMTkwNzM0ODYzMyI+JiN4YTsJPHN0eWxlIHR5cGU9InRleHQvY3NzIj4mI3hhOwkuc3Qwe2ZpbGw6IzY2OWRmNjt9JiN4YTsJLnN0MXtmaWxsOiM0Mjg1ZjQ7fSYjeGE7CS5zdDJ7ZmlsbDojYWVjYmZhO30mI3hhOwk8L3N0eWxlPiYjeGE7CTxkZWZzPiYjeGE7CQk8ZmlsdGVyIGlkPSJBIiB4PSI0LjY0IiB5PSI0LjE5IiB3aWR0aD0iMTQuNzMiIGhlaWdodD0iMTIuNzYiIGZpbHRlclVuaXRzPSJ1c2VyU3BhY2VPblVzZSIgY29sb3ItaW50ZXJwb2xhdGlvbi1maWx0ZXJzPSJzUkdCIj4mI3hhOwkJCTxmZUZsb29kIGZsb29kLWNvbG9yPSIjZmZmIi8+JiN4YTsJCQk8ZmVCbGVuZCBpbj0iU291cmNlR3JhcGhpYyIvPiYjeGE7CQk8L2ZpbHRlcj4mI3hhOwkJPG1hc2sgaWQ9IkIiIHg9IjQuNjQiIHk9IjQuMTkiIHdpZHRoPSIxNC43MyIgaGVpZ2h0PSIxMi43NiIgbWFza1VuaXRzPSJ1c2VyU3BhY2VPblVzZSI+JiN4YTsJCQk8Y2lyY2xlIGN4PSIxMiIgY3k9IjEyLjIzIiByPSIzLjU4IiBmaWx0ZXI9InVybCgjQSkiLz4mI3hhOwkJPC9tYXNrPiYjeGE7CTwvZGVmcz4mI3hhOwk8ZyBjbGFzcz0ic3QwIj4mI3hhOwkJPGNpcmNsZSBjeD0iMTYuMTMiIGN5PSI2LjIxIiByPSIxLjcyIi8+JiN4YTsJCTxjaXJjbGUgY3g9IjIuMTkiIGN5PSI2LjIxIiByPSIxLjcyIi8+JiN4YTsJCTxjaXJjbGUgY3g9IjkuMTYiIGN5PSIxOC4yOCIgcj0iMS43MiIvPiYjeGE7CTwvZz4mI3hhOwk8ZyBtYXNrPSJ1cmwoI0IpIiB0cmFuc2Zvcm09InRyYW5zbGF0ZSgtMi44NCAtMikiPiYjeGE7CQk8cGF0aCB0cmFuc2Zvcm09Im1hdHJpeCguNSAtLjg3IC44NyAuNSAtNC41OSAyMC41MykiIGQ9Ik0xNC42OSAxMC4yMmgxLjU5djguMDRoLTEuNTl6IiBjbGFzcz0ic3QxIi8+JiN4YTsJCTxwYXRoIHRyYW5zZm9ybT0icm90YXRlKDMzMCA4LjUyMyAxNC4yNDQpIiBkPSJNNC40OSAxMy40NWg4LjA0djEuNTlINC40OXoiIGNsYXNzPSJzdDEiLz4mI3hhOwkJPHBhdGggZD0iTTExLjIgNC4xOWgxLjU5djguMDRIMTEuMnoiIGNsYXNzPSJzdDEiLz4mI3hhOwk8L2c+JiN4YTsJPGcgY2xhc3M9InN0MiI+JiN4YTsJCTxjaXJjbGUgY3g9IjkuMTYiIGN5PSIxMC4yMyIgcj0iMi43OCIvPiYjeGE7CQk8Y2lyY2xlIGN4PSIyLjE5IiBjeT0iMTQuMjUiIHI9IjIuMTkiLz4mI3hhOwkJPGNpcmNsZSBjeD0iMTYuMTMiIGN5PSIxNC4yNSIgcj0iMi4xOSIvPiYjeGE7CQk8Y2lyY2xlIGN4PSI5LjE2IiBjeT0iMi4xOSIgcj0iMi4xOSIvPiYjeGE7CTwvZz4mI3hhOzwvc3ZnPg==;movable=1;resizable=1;rotatable=1;deletable=1;editable=1;locked=0;connectable=1;" parent="qC5WR0LCMUFCH1mOaVle-6" vertex="1">
          <mxGeometry x="57" y="35.5" width="38" height="42" as="geometry" />
        </mxCell>
        <mxCell id="qC5WR0LCMUFCH1mOaVle-11" value="Periodic Calculation" style="swimlane;whiteSpace=wrap;html=1;" parent="1" vertex="1">
          <mxGeometry x="1620" y="909.25" width="160" height="109" as="geometry" />
        </mxCell>
        <mxCell id="qC5WR0LCMUFCH1mOaVle-12" value="Cloud&#xa;Scheduler" style="sketch=0;html=1;verticalAlign=top;labelPosition=center;verticalLabelPosition=bottom;align=center;spacingTop=-6;fontSize=11;fontStyle=1;fontColor=#999999;shape=image;aspect=fixed;imageAspect=0;image=data:image/svg+xml,PHN2ZyB4bWxucz0iaHR0cDovL3d3dy53My5vcmcvMjAwMC9zdmciIHhtbG5zOnY9Imh0dHBzOi8vdmVjdGEuaW8vbmFubyIgd2lkdGg9IjM2MC4zMDM3NjY4NjA4MzYzIiBoZWlnaHQ9IjM3OC4wNTExNTgwNzc0MDg4IiB2aWV3Qm94PSItMC4wMDAxNjI0MjExNDM2MTM3NTU3IC0wLjAwMDEwMDAwNTk0OTIwNzExNTkyIDk1LjMzMDI2MTIzMDQ2ODc1IDEwMC4wMjYxMDAxNTg2OTE0Ij4mI3hhOzxzdHlsZSB0eXBlPSJ0ZXh0L2NzcyI+JiN4YTsJLnN0MHtmaWxsOiM0Mjg1ZjQ7fSYjeGE7CS5zdDF7ZmlsbDojYWVjYmZhO30mI3hhOwkuc3Qye2ZpbGw6IzY2OWRmNjt9JiN4YTs8L3N0eWxlPiYjeGE7CTxwYXRoIGNsYXNzPSJzdDAiIGQ9Ik03OS45NzEgNzcuNzE1bC03LjM1OSA3LjQ4OCA4LjYzOSA4LjQ5IDcuMzU5LTcuNDg4em0tNjUuMDk2LjA2MWwtOC42NDEgOC40OTIgNy4zNjEgNy40ODggOC42MzktOC40OXoiLz4mI3hhOwk8cGF0aCBjbGFzcz0ic3QxIiBkPSJNNzkuNTUzLjIyMWE1LjI1IDUuMjUgMCAwIDAtMy42NiA4Ljk4NEw4Ni4zODkgMTkuNThhNS4yNSA1LjI1IDAgMCAwIDguOTQxLTMuNzY1IDUuMjUgNS4yNSAwIDAgMC0xLjU2LTMuNzA0TDgzLjI3NSAxLjczOEE1LjI1IDUuMjUgMCAwIDAgNzkuNTUzLjIyMXpNMTUuOTE2IDBhNS4yNSA1LjI1IDAgMCAwLTMuNzIzIDEuNTE2TDEuNjk5IDExLjg5MWE1LjI1IDUuMjUgMCAwIDAtLjA0MyA3LjQyNCA1LjI1IDUuMjUgMCAwIDAgNy40MjQuMDQzTDE5LjU3NiA4Ljk4MkE1LjI1IDUuMjUgMCAwIDAgMTUuOTE2IDB6Ii8+JiN4YTsJPHBhdGggY2xhc3M9InN0MCIgZD0iTTQ4LjEzOCAyNi4yNGMxMy4zNDcgMCAyNS40MzIgMTEuMTM2IDI1LjMxIDI2LjQ4MSAwIDE1LjExLTEyLjI2NyAyNS42NzMtMjUuMTg5IDI1LjY3My0xMS4xNDkgMC0xOC4zMTctNS4xNzEtMjEuOTYtMTAuNzM4bDIxLjgzOS0xNS4wOTd6Ii8+JiN4YTsJPHBhdGggY2xhc3M9InN0MiIgZD0iTTgxLjI1IDkzLjY5M2w0LjY2NCA0LjU4NmE1LjI1IDUuMjUgMCAxIDAgNy4zNjEtNy40OWwtNC42NjYtNC41ODR6TTYuMjM0IDg2LjI2OEwxLjU3IDkwLjg1MWE1LjI1IDUuMjUgMCAwIDAtLjA2NSA3LjQyNCA1LjI1IDUuMjUgMCAwIDAgNy40MjQuMDY0bDQuNjY2LTQuNTg0ek00Ny4zNzEgNS41NzhDMjEuMzQ5IDUuNTc4LjE0NiAyNi43NzkuMTQ2IDUyLjgwMXMyMS4yMDMgNDcuMjI1IDQ3LjIyNSA0Ny4yMjUgNDcuMjI1LTIxLjIwMyA0Ny4yMjUtNDcuMjI1UzczLjM5MyA1LjU3OCA0Ny4zNzEgNS41Nzh6bTAgMTBhMzcuMTUgMzcuMTUgMCAwIDEgMzcuMjI1IDM3LjIyM2MwIDIwLjYxNy0xNi42MDcgMzcuMjI1LTM3LjIyNSAzNy4yMjVTMTAuMTQ2IDczLjQxOCAxMC4xNDYgNTIuODAxYTM3LjE1IDM3LjE1IDAgMCAxIDM3LjIyNS0zNy4yMjN6Ii8+JiN4YTs8L3N2Zz4=;" parent="qC5WR0LCMUFCH1mOaVle-11" vertex="1">
          <mxGeometry x="49" y="30" width="40" height="42" as="geometry" />
        </mxCell>
        <mxCell id="qC5WR0LCMUFCH1mOaVle-13" value="" style="group" parent="1" vertex="1" connectable="0">
          <mxGeometry x="1122.19" y="872.5" width="148.13" height="90" as="geometry" />
        </mxCell>
        <mxCell id="qC5WR0LCMUFCH1mOaVle-14" value="" style="fillColor=#ffffff;strokeColor=#dddddd;shadow=1;strokeWidth=1;rounded=1;absoluteArcSize=1;arcSize=2;" parent="qC5WR0LCMUFCH1mOaVle-13" vertex="1">
          <mxGeometry x="9.050000000000011" width="130" height="60" as="geometry" />
        </mxCell>
        <mxCell id="qC5WR0LCMUFCH1mOaVle-15" value="Cloud&#xa;Functions" style="editableCssRules=.*;html=1;fontColor=#999999;shape=image;verticalLabelPosition=middle;verticalAlign=middle;labelPosition=right;align=left;spacingLeft=20;part=1;points=[];imageAspect=0;image=data:image/svg+xml,PHN2ZyB4bWxucz0iaHR0cDovL3d3dy53My5vcmcvMjAwMC9zdmciIHhtbG5zOnY9Imh0dHBzOi8vdmVjdGEuaW8vbmFubyIgd2lkdGg9IjIwIiBoZWlnaHQ9IjE5Ljk4OTk5OTc3MTExODE2NCIgdmlld0JveD0iMCAwIDIwIDE5Ljk4OTk5OTc3MTExODE2NCI+JiN4YTsJPHN0eWxlIHR5cGU9InRleHQvY3NzIj4mI3hhOwkuc3Qwe2ZpbGw6IzQyODVmNDt9JiN4YTsJLnN0MXtmaWxsOiM2NjlkZjY7fSYjeGE7CS5zdDJ7ZmlsbDojYWVjYmZhO30mI3hhOwk8L3N0eWxlPiYjeGE7CTxwYXRoIGNsYXNzPSJzdDEiIGQ9Ik0zIDMuOTlMMCA2LjQydjcuMTNsMyAyLjQ0eiIvPiYjeGE7CTxwYXRoIGNsYXNzPSJzdDAiIGQ9Ik0zIDMuOTlsLTMgNCAzLTJ6bS0zIDhsMyA0di0yeiIvPiYjeGE7CTxwYXRoIGNsYXNzPSJzdDIiIGQ9Ik0wIDE1Ljk5bDQgNCAyLTItNi02em0uMDEtOEw1Ljk5IDJsLTItMkwwIDMuOTl6Ii8+JiN4YTsJPHBhdGggY2xhc3M9InN0MSIgZD0iTTE3IDE2bDMtMi40MlY2LjQ0TDE3IDR6Ii8+JiN4YTsJPHBhdGggY2xhc3M9InN0MCIgZD0iTTE3IDE2bDMtNC0zIDJ6bTMtOGwtMy00djJ6Ii8+JiN4YTsJPGcgY2xhc3M9InN0MiI+JiN4YTsJCTxwYXRoIGQ9Ik0yMCA0bC00LTQtMiAyIDYgNnptLS4wMSA4bC01Ljk4IDUuOTkgMiAyTDIwIDE2eiIvPiYjeGE7CQk8Y2lyY2xlIGN4PSI2IiBjeT0iOS45OSIgcj0iMSIvPiYjeGE7CQk8Y2lyY2xlIGN4PSIxMCIgY3k9IjkuOTkiIHI9IjEiLz4mI3hhOwkJPGNpcmNsZSBjeD0iMTMuOTkiIGN5PSI5Ljk5IiByPSIxIi8+JiN4YTsJPC9nPiYjeGE7PC9zdmc+;" parent="qC5WR0LCMUFCH1mOaVle-14" vertex="1">
          <mxGeometry width="30" height="24" relative="1" as="geometry">
            <mxPoint x="15" y="18" as="offset" />
          </mxGeometry>
        </mxCell>
        <mxCell id="qC5WR0LCMUFCH1mOaVle-16" value="Order Processor" style="text;html=1;align=center;verticalAlign=middle;whiteSpace=wrap;rounded=0;" parent="qC5WR0LCMUFCH1mOaVle-13" vertex="1">
          <mxGeometry y="60" width="148.13" height="30" as="geometry" />
        </mxCell>
        <mxCell id="qC5WR0LCMUFCH1mOaVle-17" value="" style="group" parent="1" vertex="1" connectable="0">
          <mxGeometry x="1124.25" y="590" width="140" height="110" as="geometry" />
        </mxCell>
        <mxCell id="qC5WR0LCMUFCH1mOaVle-18" value="" style="editableCssRules=.*;html=1;shape=image;verticalLabelPosition=bottom;labelBackgroundColor=#ffffff;verticalAlign=top;aspect=fixed;imageAspect=0;image=data:image/svg+xml,PHN2ZyB4bWxucz0iaHR0cDovL3d3dy53My5vcmcvMjAwMC9zdmciIHhtbG5zOnY9Imh0dHBzOi8vdmVjdGEuaW8vbmFubyIgd2lkdGg9IjM2NS40NjQ5OTY3NzA0MjQ5MyIgaGVpZ2h0PSIzNzkuMjIyOTk0NDYzNTc3OTUiIHZpZXdCb3g9IjAgMCA5Ni42OTU5OTkxNDU1MDc4MSAxMDAuMzM1OTk4NTM1MTU2MjUiPiYjeGE7PHN0eWxlIHR5cGU9InRleHQvY3NzIj4mI3hhOwkuc3Qwe2ZpbGw6IzQyODVmNDt9JiN4YTsJLnN0MXtmaWxsOiNhZWNiZmE7fSYjeGE7PC9zdHlsZT4mI3hhOwk8cGF0aCBjbGFzcz0ic3QwIiBkPSJNMjkuNzk0IDEwMC4zMzZMNDYuOTIgNTAuMTY4aDQ5Ljc3NnpNMCA5OS42NzFsMTIuOTc2LTQ5LjUwMkgyOS4yMkwxNi44OTcgOTIuMDU0eiIvPiYjeGE7CTxwYXRoIGNsYXNzPSJzdDEiIGQ9Ik0yOS43OTQgMEw0Ni45MiA1MC4xNjhoNDkuNzc2ek0wIC42NjZsMTIuOTc2IDQ5LjUwMkgyOS4yMkwxNi44OTcgOC4yODN6Ii8+JiN4YTs8L3N2Zz4=;" parent="qC5WR0LCMUFCH1mOaVle-17" vertex="1">
          <mxGeometry x="31.25" width="67.5" height="67.5" as="geometry" />
        </mxCell>
        <mxCell id="qC5WR0LCMUFCH1mOaVle-19" value="Cloud Run Service&lt;div&gt;DayTrader Monolith&lt;/div&gt;&lt;div&gt;（UI+bussines Logic&lt;span style=&quot;background-color: transparent; color: light-dark(rgb(0, 0, 0), rgb(255, 255, 255));&quot;&gt;）&lt;/span&gt;&lt;/div&gt;" style="text;html=1;align=center;verticalAlign=middle;whiteSpace=wrap;rounded=0;" parent="qC5WR0LCMUFCH1mOaVle-17" vertex="1">
          <mxGeometry y="67.5" width="140" height="42.5" as="geometry" />
        </mxCell>
        <mxCell id="qC5WR0LCMUFCH1mOaVle-20" value="Manage Service" style="swimlane;whiteSpace=wrap;html=1;startSize=23;" parent="1" vertex="1">
          <mxGeometry x="550" y="552.5" width="130" height="390" as="geometry" />
        </mxCell>
        <mxCell id="qC5WR0LCMUFCH1mOaVle-21" value="" style="group" parent="qC5WR0LCMUFCH1mOaVle-20" vertex="1" connectable="0">
          <mxGeometry x="22.03" y="27.5" width="95.87" height="355" as="geometry" />
        </mxCell>
        <mxCell id="qC5WR0LCMUFCH1mOaVle-25" value="" style="group" parent="qC5WR0LCMUFCH1mOaVle-21" vertex="1" connectable="0">
          <mxGeometry x="12" y="182.5" width="64" height="82" as="geometry" />
        </mxCell>
        <mxCell id="qC5WR0LCMUFCH1mOaVle-26" value="" style="image;aspect=fixed;html=1;points=[];align=center;fontSize=12;image=img/lib/azure2/databases/Cache_Redis.svg;" parent="qC5WR0LCMUFCH1mOaVle-25" vertex="1">
          <mxGeometry width="64" height="52" as="geometry" />
        </mxCell>
        <mxCell id="qC5WR0LCMUFCH1mOaVle-27" value="Redis" style="text;html=1;align=center;verticalAlign=middle;whiteSpace=wrap;rounded=0;" parent="qC5WR0LCMUFCH1mOaVle-25" vertex="1">
          <mxGeometry x="10" y="52" width="50" height="30" as="geometry" />
        </mxCell>
        <mxCell id="qC5WR0LCMUFCH1mOaVle-28" value="" style="sketch=0;html=1;aspect=fixed;strokeColor=none;shadow=0;fillColor=#3B8DF1;verticalAlign=top;labelPosition=center;verticalLabelPosition=bottom;shape=mxgraph.gcp2.database_2" parent="qC5WR0LCMUFCH1mOaVle-21" vertex="1">
          <mxGeometry x="25" y="93.5" width="39" height="50" as="geometry" />
        </mxCell>
        <mxCell id="qC5WR0LCMUFCH1mOaVle-29" value="" style="group" parent="qC5WR0LCMUFCH1mOaVle-21" vertex="1" connectable="0">
          <mxGeometry width="85.94" height="72.5" as="geometry" />
        </mxCell>
        <mxCell id="qC5WR0LCMUFCH1mOaVle-30" value="Pub/Sub" style="sketch=0;html=1;verticalAlign=top;labelPosition=center;verticalLabelPosition=bottom;align=center;spacingTop=-6;fontSize=11;fontStyle=1;fontColor=#999999;shape=image;aspect=fixed;imageAspect=0;image=data:image/svg+xml,PHN2ZyB4bWxucz0iaHR0cDovL3d3dy53My5vcmcvMjAwMC9zdmciIHhtbG5zOnY9Imh0dHBzOi8vdmVjdGEuaW8vbmFubyIgd2lkdGg9IjE4LjMxOTk5OTY5NDgyNDIyIiBoZWlnaHQ9IjIwLjAwMDAwMTkwNzM0ODYzMyIgdmlld0JveD0iMCAwIDE4LjMxOTk5OTY5NDgyNDIyIDIwLjAwMDAwMTkwNzM0ODYzMyI+JiN4YTsJPHN0eWxlIHR5cGU9InRleHQvY3NzIj4mI3hhOwkuc3Qwe2ZpbGw6IzY2OWRmNjt9JiN4YTsJLnN0MXtmaWxsOiM0Mjg1ZjQ7fSYjeGE7CS5zdDJ7ZmlsbDojYWVjYmZhO30mI3hhOwk8L3N0eWxlPiYjeGE7CTxkZWZzPiYjeGE7CQk8ZmlsdGVyIGlkPSJBIiB4PSI0LjY0IiB5PSI0LjE5IiB3aWR0aD0iMTQuNzMiIGhlaWdodD0iMTIuNzYiIGZpbHRlclVuaXRzPSJ1c2VyU3BhY2VPblVzZSIgY29sb3ItaW50ZXJwb2xhdGlvbi1maWx0ZXJzPSJzUkdCIj4mI3hhOwkJCTxmZUZsb29kIGZsb29kLWNvbG9yPSIjZmZmIi8+JiN4YTsJCQk8ZmVCbGVuZCBpbj0iU291cmNlR3JhcGhpYyIvPiYjeGE7CQk8L2ZpbHRlcj4mI3hhOwkJPG1hc2sgaWQ9IkIiIHg9IjQuNjQiIHk9IjQuMTkiIHdpZHRoPSIxNC43MyIgaGVpZ2h0PSIxMi43NiIgbWFza1VuaXRzPSJ1c2VyU3BhY2VPblVzZSI+JiN4YTsJCQk8Y2lyY2xlIGN4PSIxMiIgY3k9IjEyLjIzIiByPSIzLjU4IiBmaWx0ZXI9InVybCgjQSkiLz4mI3hhOwkJPC9tYXNrPiYjeGE7CTwvZGVmcz4mI3hhOwk8ZyBjbGFzcz0ic3QwIj4mI3hhOwkJPGNpcmNsZSBjeD0iMTYuMTMiIGN5PSI2LjIxIiByPSIxLjcyIi8+JiN4YTsJCTxjaXJjbGUgY3g9IjIuMTkiIGN5PSI2LjIxIiByPSIxLjcyIi8+JiN4YTsJCTxjaXJjbGUgY3g9IjkuMTYiIGN5PSIxOC4yOCIgcj0iMS43MiIvPiYjeGE7CTwvZz4mI3hhOwk8ZyBtYXNrPSJ1cmwoI0IpIiB0cmFuc2Zvcm09InRyYW5zbGF0ZSgtMi44NCAtMikiPiYjeGE7CQk8cGF0aCB0cmFuc2Zvcm09Im1hdHJpeCguNSAtLjg3IC44NyAuNSAtNC41OSAyMC41MykiIGQ9Ik0xNC42OSAxMC4yMmgxLjU5djguMDRoLTEuNTl6IiBjbGFzcz0ic3QxIi8+JiN4YTsJCTxwYXRoIHRyYW5zZm9ybT0icm90YXRlKDMzMCA4LjUyMyAxNC4yNDQpIiBkPSJNNC40OSAxMy40NWg4LjA0djEuNTlINC40OXoiIGNsYXNzPSJzdDEiLz4mI3hhOwkJPHBhdGggZD0iTTExLjIgNC4xOWgxLjU5djguMDRIMTEuMnoiIGNsYXNzPSJzdDEiLz4mI3hhOwk8L2c+JiN4YTsJPGcgY2xhc3M9InN0MiI+JiN4YTsJCTxjaXJjbGUgY3g9IjkuMTYiIGN5PSIxMC4yMyIgcj0iMi43OCIvPiYjeGE7CQk8Y2lyY2xlIGN4PSIyLjE5IiBjeT0iMTQuMjUiIHI9IjIuMTkiLz4mI3hhOwkJPGNpcmNsZSBjeD0iMTYuMTMiIGN5PSIxNC4yNSIgcj0iMi4xOSIvPiYjeGE7CQk8Y2lyY2xlIGN4PSI5LjE2IiBjeT0iMi4xOSIgcj0iMi4xOSIvPiYjeGE7CTwvZz4mI3hhOzwvc3ZnPg==;movable=1;resizable=1;rotatable=1;deletable=1;editable=1;locked=0;connectable=1;" parent="qC5WR0LCMUFCH1mOaVle-29" vertex="1">
          <mxGeometry x="23.060000000000002" width="38" height="42" as="geometry" />
        </mxCell>
        <mxCell id="qC5WR0LCMUFCH1mOaVle-31" value="Order topic" style="text;html=1;align=center;verticalAlign=middle;whiteSpace=wrap;rounded=0;" parent="qC5WR0LCMUFCH1mOaVle-29" vertex="1">
          <mxGeometry y="42.5" width="85.94" height="30" as="geometry" />
        </mxCell>
        <mxCell id="qC5WR0LCMUFCH1mOaVle-32" value="Secret Manager" style="text;html=1;align=center;verticalAlign=middle;whiteSpace=wrap;rounded=0;" parent="qC5WR0LCMUFCH1mOaVle-21" vertex="1">
          <mxGeometry y="135.5" width="95.87" height="30" as="geometry" />
        </mxCell>
        <mxCell id="TKTOEDtYCk432Dmo0lgV-25" value="Cloud&#xa;SQL" style="sketch=0;html=1;verticalAlign=top;labelPosition=center;verticalLabelPosition=bottom;align=center;spacingTop=-6;fontSize=11;fontStyle=1;fontColor=#999999;shape=image;aspect=fixed;imageAspect=0;image=data:image/svg+xml,PHN2ZyB4bWxucz0iaHR0cDovL3d3dy53My5vcmcvMjAwMC9zdmciIHhtbG5zOnY9Imh0dHBzOi8vdmVjdGEuaW8vbmFubyIgd2lkdGg9IjE0LjY1OTk5OTg0NzQxMjExIiBoZWlnaHQ9IjIwIiB2aWV3Qm94PSIwIDAgMTQuNjU5OTk5ODQ3NDEyMTEgMjAiPiYjeGE7CTxzdHlsZSB0eXBlPSJ0ZXh0L2NzcyI+JiN4YTsJLnN0MHtmaWxsOiM0Mjg1ZjQ7fSYjeGE7CS5zdDF7ZmlsbDojNjY5ZGY2O30mI3hhOwkuc3Qye2ZpbGw6I2FlY2JmYTt9JiN4YTsJPC9zdHlsZT4mI3hhOwk8c3R5bGU+JiN4YTsJCS5Ee2ZpbGwtcnVsZTpldmVub2RkfSYjeGE7CTwvc3R5bGU+JiN4YTsJPHBhdGggZD0iTTcuMzMgMTUuMzV2LTMuMDFMMCA4LjQ0djMuMDF6bTAgNC42NXYtMy4wMUwwIDEzLjA5djMuMDF6IiBjbGFzcz0ic3QyIEQiLz4mI3hhOwk8cGF0aCBkPSJNMTQuNjYgOC40NGwtNy4zMyAzLjl2My4wMWw3LjMzLTMuOXptMCA0LjY1bC03LjMzIDMuOVYyMGw3LjMzLTMuOXoiIGNsYXNzPSJzdDEgRCIvPiYjeGE7CTxwYXRoIGQ9Ik03LjMzIDB2My4wMWw3LjMzIDMuOVYzLjl6IiBjbGFzcz0ic3QwIEQiLz4mI3hhOwk8cGF0aCBkPSJNMCA2LjkxbDcuMzMtMy45VjBMMCAzLjl6IiBjbGFzcz0iRCBzdDEiLz4mI3hhOwk8cGF0aCBkPSJNNy4zMyAxMC43OVY3Ljc3TDAgMy44N3YzLjAyeiIgY2xhc3M9IkQgc3QyIi8+JiN4YTsJPHBhdGggZD0iTTE0LjY2IDMuODdsLTcuMzMgMy45djMuMDJsNy4zMy0zLjl6IiBjbGFzcz0iRCBzdDEiLz4mI3hhOzwvc3ZnPg==;" parent="qC5WR0LCMUFCH1mOaVle-21" vertex="1">
          <mxGeometry x="16" y="269" width="43.93" height="57.66" as="geometry" />
        </mxCell>
        <mxCell id="qC5WR0LCMUFCH1mOaVle-34" value="" style="group" parent="1" vertex="1" connectable="0">
          <mxGeometry x="1116.88" y="730" width="158.75" height="91" as="geometry" />
        </mxCell>
        <mxCell id="qC5WR0LCMUFCH1mOaVle-35" value="" style="fillColor=#ffffff;strokeColor=#dddddd;shadow=1;strokeWidth=1;rounded=1;absoluteArcSize=1;arcSize=2;" parent="qC5WR0LCMUFCH1mOaVle-34" vertex="1">
          <mxGeometry x="14.370000000000005" width="130" height="60" as="geometry" />
        </mxCell>
        <mxCell id="qC5WR0LCMUFCH1mOaVle-36" value="Cloud&#xa;Functions" style="editableCssRules=.*;html=1;fontColor=#999999;shape=image;verticalLabelPosition=middle;verticalAlign=middle;labelPosition=right;align=left;spacingLeft=20;part=1;points=[];imageAspect=0;image=data:image/svg+xml,PHN2ZyB4bWxucz0iaHR0cDovL3d3dy53My5vcmcvMjAwMC9zdmciIHhtbG5zOnY9Imh0dHBzOi8vdmVjdGEuaW8vbmFubyIgd2lkdGg9IjIwIiBoZWlnaHQ9IjE5Ljk4OTk5OTc3MTExODE2NCIgdmlld0JveD0iMCAwIDIwIDE5Ljk4OTk5OTc3MTExODE2NCI+JiN4YTsJPHN0eWxlIHR5cGU9InRleHQvY3NzIj4mI3hhOwkuc3Qwe2ZpbGw6IzQyODVmNDt9JiN4YTsJLnN0MXtmaWxsOiM2NjlkZjY7fSYjeGE7CS5zdDJ7ZmlsbDojYWVjYmZhO30mI3hhOwk8L3N0eWxlPiYjeGE7CTxwYXRoIGNsYXNzPSJzdDEiIGQ9Ik0zIDMuOTlMMCA2LjQydjcuMTNsMyAyLjQ0eiIvPiYjeGE7CTxwYXRoIGNsYXNzPSJzdDAiIGQ9Ik0zIDMuOTlsLTMgNCAzLTJ6bS0zIDhsMyA0di0yeiIvPiYjeGE7CTxwYXRoIGNsYXNzPSJzdDIiIGQ9Ik0wIDE1Ljk5bDQgNCAyLTItNi02em0uMDEtOEw1Ljk5IDJsLTItMkwwIDMuOTl6Ii8+JiN4YTsJPHBhdGggY2xhc3M9InN0MSIgZD0iTTE3IDE2bDMtMi40MlY2LjQ0TDE3IDR6Ii8+JiN4YTsJPHBhdGggY2xhc3M9InN0MCIgZD0iTTE3IDE2bDMtNC0zIDJ6bTMtOGwtMy00djJ6Ii8+JiN4YTsJPGcgY2xhc3M9InN0MiI+JiN4YTsJCTxwYXRoIGQ9Ik0yMCA0bC00LTQtMiAyIDYgNnptLS4wMSA4bC01Ljk4IDUuOTkgMiAyTDIwIDE2eiIvPiYjeGE7CQk8Y2lyY2xlIGN4PSI2IiBjeT0iOS45OSIgcj0iMSIvPiYjeGE7CQk8Y2lyY2xlIGN4PSIxMCIgY3k9IjkuOTkiIHI9IjEiLz4mI3hhOwkJPGNpcmNsZSBjeD0iMTMuOTkiIGN5PSI5Ljk5IiByPSIxIi8+JiN4YTsJPC9nPiYjeGE7PC9zdmc+;" parent="qC5WR0LCMUFCH1mOaVle-35" vertex="1">
          <mxGeometry width="30" height="24" relative="1" as="geometry">
            <mxPoint x="15" y="18" as="offset" />
          </mxGeometry>
        </mxCell>
        <mxCell id="qC5WR0LCMUFCH1mOaVle-37" value="Market Summary Calculator" style="text;html=1;align=center;verticalAlign=middle;whiteSpace=wrap;rounded=0;" parent="qC5WR0LCMUFCH1mOaVle-34" vertex="1">
          <mxGeometry y="61" width="158.75" height="30" as="geometry" />
        </mxCell>
        <mxCell id="qC5WR0LCMUFCH1mOaVle-49" value="Serverless Computer" style="swimlane;whiteSpace=wrap;html=1;startSize=30;" parent="1" vertex="1">
          <mxGeometry x="1090" y="550" width="200" height="410" as="geometry" />
        </mxCell>
        <mxCell id="TKTOEDtYCk432Dmo0lgV-15" value="" style="endArrow=classic;html=1;rounded=0;entryX=1;entryY=0.5;entryDx=0;entryDy=0;" parent="1" target="qC5WR0LCMUFCH1mOaVle-30" edge="1">
          <mxGeometry width="50" height="50" relative="1" as="geometry">
            <mxPoint x="800" y="601" as="sourcePoint" />
            <mxPoint x="1020" y="615" as="targetPoint" />
          </mxGeometry>
        </mxCell>
        <mxCell id="TKTOEDtYCk432Dmo0lgV-17" value="" style="endArrow=classic;html=1;rounded=0;entryX=1;entryY=0.5;entryDx=0;entryDy=0;" parent="1" edge="1">
          <mxGeometry width="50" height="50" relative="1" as="geometry">
            <mxPoint x="800" y="791" as="sourcePoint" />
            <mxPoint x="650" y="791.25" as="targetPoint" />
          </mxGeometry>
        </mxCell>
        <mxCell id="TKTOEDtYCk432Dmo0lgV-18" value="" style="endArrow=classic;html=1;rounded=0;entryX=1;entryY=0.5;entryDx=0;entryDy=0;" parent="1" edge="1">
          <mxGeometry width="50" height="50" relative="1" as="geometry">
            <mxPoint x="801" y="700" as="sourcePoint" />
            <mxPoint x="634" y="700" as="targetPoint" />
          </mxGeometry>
        </mxCell>
        <mxCell id="TKTOEDtYCk432Dmo0lgV-19" value="" style="endArrow=classic;html=1;rounded=0;entryX=1;entryY=0.5;entryDx=0;entryDy=0;" parent="1" edge="1">
          <mxGeometry width="50" height="50" relative="1" as="geometry">
            <mxPoint x="801" y="879" as="sourcePoint" />
            <mxPoint x="634" y="879" as="targetPoint" />
          </mxGeometry>
        </mxCell>
        <mxCell id="TKTOEDtYCk432Dmo0lgV-23" value="" style="shape=partialRectangle;whiteSpace=wrap;html=1;bottom=0;right=0;fillColor=none;" parent="1" vertex="1">
          <mxGeometry x="801" y="601" width="319" height="280" as="geometry" />
        </mxCell>
        <mxCell id="TKTOEDtYCk432Dmo0lgV-27" value="" style="endArrow=classic;html=1;rounded=0;entryX=1;entryY=0.5;entryDx=0;entryDy=0;exitX=0.14;exitY=0.621;exitDx=0;exitDy=0;exitPerimeter=0;" parent="1" edge="1">
          <mxGeometry width="50" height="50" relative="1" as="geometry">
            <mxPoint x="850.8600000000001" y="772.8800000000001" as="sourcePoint" />
            <mxPoint x="652" y="772.92" as="targetPoint" />
          </mxGeometry>
        </mxCell>
        <mxCell id="TKTOEDtYCk432Dmo0lgV-28" value="" style="endArrow=classic;html=1;rounded=0;entryX=1;entryY=0.5;entryDx=0;entryDy=0;exitX=0.14;exitY=0.936;exitDx=0;exitDy=0;exitPerimeter=0;" parent="1" edge="1">
          <mxGeometry width="50" height="50" relative="1" as="geometry">
            <mxPoint x="849.8600000000001" y="898.0799999999999" as="sourcePoint" />
            <mxPoint x="630" y="898.12" as="targetPoint" />
          </mxGeometry>
        </mxCell>
        <mxCell id="TKTOEDtYCk432Dmo0lgV-29" value="" style="shape=partialRectangle;whiteSpace=wrap;html=1;bottom=0;right=0;fillColor=none;" parent="1" vertex="1">
          <mxGeometry x="850" y="772.5" width="270" height="127.5" as="geometry" />
        </mxCell>
        <mxCell id="TKTOEDtYCk432Dmo0lgV-30" value="Publishes to" style="text;html=1;align=center;verticalAlign=middle;whiteSpace=wrap;rounded=0;" parent="1" vertex="1">
          <mxGeometry x="690" y="570" width="100" height="30" as="geometry" />
        </mxCell>
        <mxCell id="TKTOEDtYCk432Dmo0lgV-36" value="Reads secrets" style="text;html=1;align=center;verticalAlign=middle;whiteSpace=wrap;rounded=0;" parent="1" vertex="1">
          <mxGeometry x="684" y="667.83" width="100" height="30" as="geometry" />
        </mxCell>
        <mxCell id="TKTOEDtYCk432Dmo0lgV-38" value="Reads summary from&amp;nbsp;" style="text;html=1;align=center;verticalAlign=middle;whiteSpace=wrap;rounded=0;" parent="1" vertex="1">
          <mxGeometry x="684" y="795.25" width="100" height="30" as="geometry" />
        </mxCell>
        <mxCell id="TKTOEDtYCk432Dmo0lgV-41" value="JDBC/EJB&lt;div&gt;Updates&lt;/div&gt;" style="text;html=1;align=center;verticalAlign=middle;whiteSpace=wrap;rounded=0;" parent="1" vertex="1">
          <mxGeometry x="690" y="897.75" width="100" height="30" as="geometry" />
        </mxCell>
        <mxCell id="TKTOEDtYCk432Dmo0lgV-44" value="JDBC/EJB&lt;div&gt;Reads/Writes&lt;/div&gt;" style="text;html=1;align=center;verticalAlign=middle;whiteSpace=wrap;rounded=0;" parent="1" vertex="1">
          <mxGeometry x="684" y="847.5" width="100" height="30" as="geometry" />
        </mxCell>
        <mxCell id="TKTOEDtYCk432Dmo0lgV-47" value="Writes Summary" style="text;html=1;align=center;verticalAlign=middle;whiteSpace=wrap;rounded=0;" parent="1" vertex="1">
          <mxGeometry x="688" y="747.5" width="100" height="30" as="geometry" />
        </mxCell>
        <mxCell id="TKTOEDtYCk432Dmo0lgV-49" value="" style="endArrow=classic;html=1;rounded=0;" parent="1" edge="1">
          <mxGeometry width="50" height="50" relative="1" as="geometry">
            <mxPoint x="1118" y="926" as="sourcePoint" />
            <mxPoint x="632" y="926" as="targetPoint" />
            <Array as="points" />
          </mxGeometry>
        </mxCell>
        <mxCell id="TKTOEDtYCk432Dmo0lgV-54" value="" style="endArrow=classic;html=1;rounded=0;" parent="1" edge="1">
          <mxGeometry width="50" height="50" relative="1" as="geometry">
            <mxPoint x="1520" y="814" as="sourcePoint" />
            <mxPoint x="1660" y="814.42" as="targetPoint" />
          </mxGeometry>
        </mxCell>
        <mxCell id="TKTOEDtYCk432Dmo0lgV-55" value="" style="endArrow=classic;html=1;rounded=0;" parent="1" edge="1">
          <mxGeometry width="50" height="50" relative="1" as="geometry">
            <mxPoint x="1514" y="610" as="sourcePoint" />
            <mxPoint x="1654" y="610.42" as="targetPoint" />
          </mxGeometry>
        </mxCell>
        <mxCell id="TKTOEDtYCk432Dmo0lgV-56" value="" style="shape=partialRectangle;whiteSpace=wrap;html=1;bottom=0;right=0;fillColor=none;rotation=90;" parent="1" vertex="1">
          <mxGeometry x="1282.5" y="577.5" width="205" height="270" as="geometry" />
        </mxCell>
        <mxCell id="TKTOEDtYCk432Dmo0lgV-59" style="edgeStyle=orthogonalEdgeStyle;rounded=0;orthogonalLoop=1;jettySize=auto;html=1;" parent="1" edge="1">
          <mxGeometry relative="1" as="geometry">
            <mxPoint x="1540" y="970" as="sourcePoint" />
            <mxPoint x="1270" y="770" as="targetPoint" />
            <Array as="points">
              <mxPoint x="1669" y="970" />
              <mxPoint x="1410" y="970" />
              <mxPoint x="1410" y="770" />
            </Array>
          </mxGeometry>
        </mxCell>
        <mxCell id="TKTOEDtYCk432Dmo0lgV-67" value="Queries quotes" style="text;html=1;align=center;verticalAlign=middle;whiteSpace=wrap;rounded=0;" parent="1" vertex="1">
          <mxGeometry x="960" y="877.5" width="100" height="30" as="geometry" />
        </mxCell>
        <mxCell id="TKTOEDtYCk432Dmo0lgV-68" value="Publishes to" style="text;html=1;align=center;verticalAlign=middle;whiteSpace=wrap;rounded=0;" parent="1" vertex="1">
          <mxGeometry x="1520" y="577.5" width="100" height="30" as="geometry" />
        </mxCell>
        <mxCell id="TKTOEDtYCk432Dmo0lgV-71" value="Subscribes to" style="text;html=1;align=center;verticalAlign=middle;whiteSpace=wrap;rounded=0;" parent="1" vertex="1">
          <mxGeometry x="1520" y="779.5" width="100" height="30" as="geometry" />
        </mxCell>
        <mxCell id="TKTOEDtYCk432Dmo0lgV-72" value="Container" style="swimlane;" parent="1" vertex="1">
          <mxGeometry x="530" y="300" width="1280" height="740" as="geometry" />
        </mxCell>
        <mxCell id="qC5WR0LCMUFCH1mOaVle-43" value="CI/CD" style="swimlane;whiteSpace=wrap;html=1;movable=1;resizable=1;rotatable=1;deletable=1;editable=1;locked=0;connectable=1;" parent="TKTOEDtYCk432Dmo0lgV-72" vertex="1">
          <mxGeometry x="589.8800000000001" y="50" width="140" height="150" as="geometry" />
        </mxCell>
        <mxCell id="qC5WR0LCMUFCH1mOaVle-44" value="Cloud Build" style="rounded=0;whiteSpace=wrap;html=1;movable=0;resizable=0;rotatable=0;deletable=0;editable=0;locked=1;connectable=0;" parent="qC5WR0LCMUFCH1mOaVle-43" vertex="1">
          <mxGeometry x="25" y="40" width="100" height="40" as="geometry" />
        </mxCell>
        <mxCell id="qC5WR0LCMUFCH1mOaVle-45" value="Artifact Regist" style="rounded=0;whiteSpace=wrap;html=1;movable=0;resizable=0;rotatable=0;deletable=0;editable=0;locked=1;connectable=0;" parent="qC5WR0LCMUFCH1mOaVle-43" vertex="1">
          <mxGeometry x="25" y="90" width="100" height="40" as="geometry" />
        </mxCell>
        <mxCell id="TKTOEDtYCk432Dmo0lgV-64" value="" style="edgeStyle=elbowEdgeStyle;elbow=horizontal;endArrow=classic;html=1;curved=0;rounded=0;endSize=8;startSize=8;exitX=1;exitY=0;exitDx=0;exitDy=0;" parent="TKTOEDtYCk432Dmo0lgV-72" source="qC5WR0LCMUFCH1mOaVle-31" edge="1">
          <mxGeometry width="50" height="50" relative="1" as="geometry">
            <mxPoint x="122.66000000000008" y="284.25" as="sourcePoint" />
            <mxPoint x="586.8800000000001" y="609.25" as="targetPoint" />
          </mxGeometry>
        </mxCell>
        <mxCell id="TKTOEDtYCk432Dmo0lgV-75" value="" style="edgeStyle=orthogonalEdgeStyle;rounded=0;orthogonalLoop=1;jettySize=auto;html=1;entryX=0.5;entryY=0;entryDx=0;entryDy=0;" parent="1" source="qC5WR0LCMUFCH1mOaVle-43" target="qC5WR0LCMUFCH1mOaVle-49" edge="1">
          <mxGeometry relative="1" as="geometry">
            <mxPoint x="1187" y="540" as="targetPoint" />
          </mxGeometry>
        </mxCell>
        <mxCell id="TKTOEDtYCk432Dmo0lgV-76" value="" style="sketch=0;aspect=fixed;pointerEvents=1;shadow=0;dashed=0;html=1;strokeColor=none;labelPosition=center;verticalLabelPosition=bottom;verticalAlign=top;align=center;fillColor=#00188D;shape=mxgraph.azure.computer" parent="1" vertex="1">
          <mxGeometry x="1098" y="120" width="142.5" height="128.25" as="geometry" />
        </mxCell>
        <mxCell id="TKTOEDtYCk432Dmo0lgV-77" value="" style="endArrow=classic;html=1;rounded=0;entryX=0.5;entryY=0;entryDx=0;entryDy=0;exitX=0.5;exitY=1;exitDx=0;exitDy=0;exitPerimeter=0;" parent="1" source="TKTOEDtYCk432Dmo0lgV-76" target="TKTOEDtYCk432Dmo0lgV-72" edge="1">
          <mxGeometry width="50" height="50" relative="1" as="geometry">
            <mxPoint x="1150" y="410" as="sourcePoint" />
            <mxPoint x="1440" y="160" as="targetPoint" />
          </mxGeometry>
        </mxCell>
        <mxCell id="TKTOEDtYCk432Dmo0lgV-78" value="Web Browser users" style="text;html=1;align=center;verticalAlign=middle;whiteSpace=wrap;rounded=0;" parent="1" vertex="1">
          <mxGeometry x="1119.25" y="160" width="100" height="30" as="geometry" />
        </mxCell>
      </root>
    </mxGraphModel>
  </diagram>
</mxfile>
